# xmcd
#
# Track frame offsets:
# 150
# 24495
# 41176
# 63425
# 81354
# 103572
# 127406
# 147496
# 162402
# 185339
# 203301
# 217790
#
# Disc length: 3172 seconds
#
# Revision: 1
# Processed by: cddbd v1.5.1PL0 Copyright (c) Steve Scherf et al.
# Submitted via: CedeCatalogueitor 2.6.0.6 http://personales.ya.com/cdcatalogueitor
#
DISCID=ab0c620c
DTITLE=Varios - 80's Chill Out Pop Español CD2
DYEAR=2004
DGENRE=
TTITLE0=Bailando
TTITLE1=Cadillac Solitario
TTITLE2=Mujer Contra Mujer
TTITLE3=Lobo Hombre En París
TTITLE4=Y No Me Importa Nada
TTITLE5=Hawai Bombay
TTITLE6=En Algún Lugar De Un Gran País
TTITLE7=Sabor De Amor
TTITLE8=No Controles
TTITLE9=Mediterráneo
TTITLE10=Salta
TTITLE11=Mil Calles Llevan Hacia Ti
EXTD=
EXTT0=
EXTT1=
EXTT2=
EXTT3=
EXTT4=
EXTT5=
EXTT6=
EXTT7=
EXTT8=
EXTT9=
EXTT10=
EXTT11=
PLAYORDER=
